<?xml version="1.0" encoding="UTF-8" standalone="no"?> <!-- Created with Vectornator for iOS (http://vectornator.io/) --><!DOCTYPE svg PUBLIC "-//W3C//DTD SVG 1.1//EN" "http://www.w3.org/Graphics/SVG/1.1/DTD/svg11.dtd">
<svg height="100%" style="fill-rule:nonzero;clip-rule:evenodd;stroke-linecap:round;stroke-linejoin:round;" xmlns:xlink="http://www.w3.org/1999/xlink" xmlns="http://www.w3.org/2000/svg" xml:space="preserve" width="100%" xmlns:vectornator="http://vectornator.io" version="1.1" viewBox="0 0 36 36">
<metadata>
<vectornator:setting key="DimensionsVisible" value="1"/>
<vectornator:setting key="DynamicGuides" value="0"/>
<vectornator:setting key="SnapToEdges" value="0"/>
<vectornator:setting key="PencilOnly" value="0"/>
<vectornator:setting key="doHistoryDisabled" value="0"/>
<vectornator:setting key="SnapToGrid" value="0"/>
<vectornator:setting key="GuidesVisible" value="1"/>
<vectornator:setting key="RulersVisible" value="1"/>
<vectornator:setting key="CMYKEnabledKey" value="0"/>
<vectornator:setting key="TimeLapseWatermarkDisabled" value="0"/>
<vectornator:setting key="DisplayWhiteBackground" value="0"/>
<vectornator:setting key="SnapToGuides" value="1"/>
<vectornator:setting key="OutlineMode" value="0"/>
<vectornator:setting key="Units" value="Points"/>
<vectornator:setting key="IsolateActiveLayer" value="0"/>
<vectornator:setting key="SnapToPoints" value="0"/>
</metadata>
<defs/>
<g id="图层 1" vectornator:layerName="图层 1" visibility="hidden">
<path d="M8.07973+10.1674L17.252+8.55143L17.252+17.1431L8.01128+17.1431L8.07973+10.1674Z" opacity="1" fill="#ffffff"/>
<path d="M18.3196+8.5468L28.6955+6.77726L28.9032+17.1385L18.3196+17.1385L18.3196+8.5468Z" opacity="1" fill="#ffffff"/>
<path d="M8.13222+18.2387L17.3882+18.2387L17.2437+25.666L8.04529+24.0505L8.13222+18.2387Z" opacity="1" fill="#ffffff"/>
<path d="M18.2537+18.3633L28.8373+18.3633L28.8377+27.849L18.1835+25.9091L18.2537+18.3633Z" opacity="1" fill="#ffffff"/>
</g>
<g id="图层 2" vectornator:layerName="图层 2">
<path d="M7.75218+8.50951L17.395+8.50951L17.395+17.0081L7.75218+17.0081L7.75218+8.50951Z" opacity="1" fill="#ffffff"/>
<path d="M18.6892+8.4098L28.332+8.4098L28.332+16.9084L18.6892+16.9084L18.6892+8.4098Z" opacity="1" fill="#ffffff"/>
<path d="M18.5636+18.0543L28.2064+18.0543L28.2064+26.5529L18.5636+26.5529L18.5636+18.0543Z" opacity="1" fill="#ffffff"/>
<path d="M7.88272+18.1685L17.5256+18.1685L17.5256+26.6672L7.88272+26.6672L7.88272+18.1685Z" opacity="1" fill="#ffffff"/>
</g>
</svg>
